<?xml version="1.0" encoding="utf-8"?>
<!-- Generator: Adobe Illustrator 16.0.0, SVG Export Plug-In . SVG Version: 6.00 Build 0)  -->
<!DOCTYPE svg PUBLIC "-//W3C//DTD SVG 1.1//EN" "http://www.w3.org/Graphics/SVG/1.1/DTD/svg11.dtd">
<svg version="1.1" id="Layer_1" xmlns="http://www.w3.org/2000/svg" xmlns:xlink="http://www.w3.org/1999/xlink" x="0px" y="0px"
	 width="170.731px" height="204.065px" viewBox="0 0 170.731 204.065" enable-background="new 0 0 170.731 204.065"
	 xml:space="preserve">
<g>
	<path fill-rule="evenodd" clip-rule="evenodd" fill="#FFFFFF" d="M78.875,184.748c0-2.572,0-4.844,0-7.357
		c-10.459,0-20.686,0-31.268,0c0,2.387,0,4.635,0,7.357C57.831,184.748,68.162,184.748,78.875,184.748z"/>
	<path fill-rule="evenodd" clip-rule="evenodd" fill="#FFFFFF" d="M103.514,165.291c-7.891,0-15.492,0-23.517,0
		c0,2.282,0,4.482,0,7.085c7.792,0,15.503,0,23.517,0C103.514,170.09,103.514,167.987,103.514,165.291z"/>
	<path fill-rule="evenodd" clip-rule="evenodd" fill="#FFFFFF" d="M23.033,153.169c0,2.273,0,4.36,0,6.836
		c7.741,0,15.399,0,23.362,0c0-2.285,0-4.358,0-6.836C38.727,153.169,31.187,153.169,23.033,153.169z"/>
	<path fill-rule="evenodd" clip-rule="evenodd" fill="#FFFFFF" d="M38.502,165.286c-5.68,0-10.44,0-15.464,0
		c0,2.469,0,4.699,0,7.204c4.978,0,9.736,0,15.136,0C38.275,170.268,38.381,167.932,38.502,165.286z"/>
	<path fill-rule="evenodd" clip-rule="evenodd" fill="#FFFFFF" d="M103.535,159.942c0-2.367,0-4.306,0-6.709
		c-5.119,0-10.107,0-15.451,0c0,2.115,0,4.185,0,6.709C93.015,159.942,98.02,159.942,103.535,159.942z"/>
	<path fill-rule="evenodd" clip-rule="evenodd" fill="#FFFFFF" d="M103.312,177.381c-2.343,0-4.44,0-6.937,0
		c0,2.383,0,4.753,0,7.479c2.186,0,4.4,0,6.937,0C103.312,182.39,103.312,180.004,103.312,177.381z"/>
	<path fill-rule="evenodd" clip-rule="evenodd" fill="#FFFFFF" d="M83.59,184.96c2.596,0,4.846,0,7.366,0c0-2.507,0-4.777,0-7.435
		c-2.329,0-4.694,0-7.366,0C83.59,179.847,83.59,182.102,83.59,184.96z"/>
	<path fill-rule="evenodd" clip-rule="evenodd" fill="#FFFFFF" d="M42.381,184.904c0-2.712,0-4.956,0-7.478
		c-2.474,0-4.693,0-7.267,0c0,2.445,0,4.807,0,7.478C37.475,184.904,39.706,184.904,42.381,184.904z"/>
	<path fill-rule="evenodd" clip-rule="evenodd" fill="#FFFFFF" d="M103.322,140.682c-2.604,0-4.68,0-7.047,0
		c0,2.491,0,4.707,0,7.315c2.248,0,4.445,0,7.047,0C103.322,145.69,103.322,143.361,103.322,140.682z"/>
	<path fill-rule="evenodd" clip-rule="evenodd" fill="#FFFFFF" d="M71.802,140.739c0,2.706,0,4.933,0,7.402c2.407,0,4.504,0,6.993,0
		c0-2.332,0-4.696,0-7.402C76.626,140.739,74.432,140.739,71.802,140.739z"/>
	<path fill-rule="evenodd" clip-rule="evenodd" fill="#FFFFFF" d="M59.54,148.122c2.49,0,4.709,0,7.25,0c0-2.505,0-4.85,0-7.459
		c-2.461,0-4.672,0-7.25,0C59.54,143.066,59.54,145.266,59.54,148.122z"/>
	<path fill-rule="evenodd" clip-rule="evenodd" fill="#FFFFFF" d="M74.663,165.269c-2.507,0-4.636,0-7.056,0
		c0,2.448,0,4.674,0,7.195c2.374,0,4.479,0,7.056,0C74.663,170.253,74.663,167.908,74.663,165.269z"/>
	<path fill-rule="evenodd" clip-rule="evenodd" fill="#FFFFFF" d="M63.073,165.292c-2.872,0-5.101,0-7.685,0
		c0,2.328,0,4.524,0,7.096c2.29,0,4.505,0,7.356,0C62.841,170.292,62.943,168.092,63.073,165.292z"/>
	<path fill-rule="evenodd" clip-rule="evenodd" fill="#FFFFFF" d="M43.177,165.49c0,2.479,0,4.573,0,6.967c2.502,0,4.715,0,7.25,0
		c0-2.341,0-4.427,0-6.967C48.047,165.49,45.586,165.49,43.177,165.49z"/>
	<path fill-rule="evenodd" clip-rule="evenodd" fill="#FFFFFF" d="M54.58,140.626c-2.528,0-4.604,0-7.094,0c0,2.369,0,4.567,0,7.273
		c2.144,0,4.455,0,7.094,0C54.58,145.625,54.58,143.407,54.58,140.626z"/>
	<path fill-rule="evenodd" clip-rule="evenodd" fill="#FFFFFF" d="M84.182,140.71c0,2.531,0,4.758,0,7.331c2.244,0,4.302,0,6.705,0
		c0-2.401,0-4.763,0-7.331C88.576,140.71,86.52,140.71,84.182,140.71z"/>
	<path fill-rule="evenodd" clip-rule="evenodd" fill="#FFFFFF" d="M35.058,148.154c2.501,0,4.586,0,6.998,0c0-2.576,0-4.92,0-7.507
		c-2.414,0-4.488,0-6.998,0C35.058,143.065,35.058,145.407,35.058,148.154z"/>
	<path fill-rule="evenodd" clip-rule="evenodd" fill="#FFFFFF" d="M30.154,148.093c0-2.453,0-4.672,0-7.291c-2.284,0-4.456,0-7.02,0
		c0,2.304,0,4.647,0,7.291C25.462,148.093,27.655,148.093,30.154,148.093z"/>
	<path fill-rule="evenodd" clip-rule="evenodd" fill="#FFFFFF" d="M75.431,160.094c2.692,0,4.792,0,7.297,0c0-2.122,0-4.325,0-6.936
		c-1.948,0-4,0-6.835,0C75.756,155.208,75.604,157.483,75.431,160.094z"/>
	<path fill-rule="evenodd" clip-rule="evenodd" fill="#FFFFFF" d="M70.806,159.944c0-2.141,0-4.218,0-6.737
		c-2.312,0-4.643,0-7.297,0c0,2.16,0,4.224,0,6.737C65.857,159.944,68.185,159.944,70.806,159.944z"/>
	<path fill-rule="evenodd" clip-rule="evenodd" fill="#FFFFFF" d="M58.623,153.04c-2.543,0-4.764,0-7.312,0c0,2.32,0,4.379,0,6.896
		c2.322,0,4.65,0,7.312,0C58.623,157.804,58.623,155.744,58.623,153.04z"/>
	<path fill-rule="evenodd" clip-rule="evenodd" fill="#FFFFFF" d="M30.102,177.411c-2.29,0-4.391,0-6.916,0c0,2.298,0,4.68,0,7.433
		c2.111,0,4.331,0,6.916,0C30.102,182.425,30.102,180.052,30.102,177.411z"/>
</g>
<path fill-rule="evenodd" clip-rule="evenodd" fill="none" stroke="#FFFFFF" stroke-width="4" stroke-miterlimit="10" d="
	M19.083,129.934c-4.468,0-8.092,3.076-8.092,6.871v52.097c0,3.795,3.624,6.87,8.092,6.87h87.335c4.469,0,8.092-3.075,8.092-6.869
	v-52.098c0-3.795-3.623-6.871-8.092-6.871H19.083z"/>
<path fill="none" stroke="#FFFFFF" stroke-width="5" stroke-miterlimit="10" d="M25.85,128.26c0-10.155,4.921-17.854,16.129-18.444
	c10.652-0.562,18.102,10.557,30.298,6.482c4.939-1.649,10.685-5.287,12.721-13.802"/>
<g>
	<line fill="none" stroke="#FFFFFF" stroke-width="6" stroke-miterlimit="10" x1="95.469" y1="17.635" x2="75.85" y2="52.112"/>
	<line fill="none" stroke="#FFFFFF" stroke-width="6" stroke-miterlimit="10" x1="75.85" y1="52.112" x2="33.201" y2="62.763"/>
	<line fill="none" stroke="#FFFFFF" stroke-width="6" stroke-miterlimit="10" x1="75.85" y1="52.112" x2="87.301" y2="94.332"/>
	<line fill="none" stroke="#FFFFFF" stroke-width="6" stroke-miterlimit="10" x1="87.301" y1="94.332" x2="130.41" y2="83.912"/>
	<line fill="none" stroke="#FFFFFF" stroke-width="6" stroke-miterlimit="10" x1="130.41" y1="83.912" x2="150.043" y2="49.714"/>
	<line fill="none" stroke="#FFFFFF" stroke-width="6" stroke-miterlimit="10" x1="130.41" y1="83.912" x2="142.875" y2="126.273"/>
	<circle fill="#FFFFFF" stroke="#FFFFFF" stroke-width="6" stroke-miterlimit="10" cx="75.85" cy="52.112" r="8.167"/>
	<circle fill="#FFFFFF" stroke="#FFFFFF" stroke-width="6" stroke-miterlimit="10" cx="95.468" cy="17.635" r="8.167"/>
	<circle fill="#FFFFFF" stroke="#FFFFFF" stroke-width="6" stroke-miterlimit="10" cx="33.201" cy="62.763" r="8.167"/>
	<circle fill="#FFFFFF" stroke="#FFFFFF" stroke-width="6" stroke-miterlimit="10" cx="150.042" cy="49.714" r="8.167"/>
	<circle fill="#FFFFFF" stroke="#FFFFFF" stroke-width="6" stroke-miterlimit="10" cx="130.41" cy="83.912" r="8.167"/>
	<circle fill="#FFFFFF" stroke="#FFFFFF" stroke-width="6" stroke-miterlimit="10" cx="87.3" cy="94.333" r="8.167"/>
	<circle fill="#FFFFFF" stroke="#FFFFFF" stroke-width="6" stroke-miterlimit="10" cx="142.875" cy="126.273" r="8.167"/>
</g>
</svg>
