<?xml version="1.0" encoding="utf-8"?>
<!-- Generator: Adobe Illustrator 16.0.0, SVG Export Plug-In . SVG Version: 6.00 Build 0)  -->
<!DOCTYPE svg PUBLIC "-//W3C//DTD SVG 1.1//EN" "http://www.w3.org/Graphics/SVG/1.1/DTD/svg11.dtd">
<svg version="1.1" id="Layer_1" xmlns="http://www.w3.org/2000/svg" xmlns:xlink="http://www.w3.org/1999/xlink" x="0px" y="0px"
	 width="288px" height="288px" viewBox="0 0 288 288" enable-background="new 0 0 288 288" xml:space="preserve">
<rect fill="#7C95B0" width="288" height="288"/>
<g>
	<path fill="#FFFFFF" d="M143.469,245.693H131.75v-46.875h-23.438v46.875H96.594v-46.875H73.156v46.875H61.438v-46.875h11.719V187.1
		h23.438v11.719h11.719V187.1h23.438v11.719h11.719V245.693z"/>
	<path fill="#FFFFFF" d="M202.062,233.975h-11.719v11.719h-23.438v23.438h-11.719V187.1h11.719h23.438v11.719h11.719V233.975z
		 M190.344,233.975v-35.156h-23.438v35.156H190.344z"/>
	<path fill="#FFFFFF" d="M260.656,233.975h-11.719v11.719H225.5v23.438h-11.719V187.1H225.5h23.438v11.719h11.719V233.975z
		 M248.938,233.975v-35.156H225.5v35.156H248.938z"/>
</g>
</svg>
